<svg width="34" height="34" viewBox="0 0 34 34" fill="none" xmlns="http://www.w3.org/2000/svg">
<rect x="1.43066" y="0.5" width="32.0694" height="33" rx="16.0347" stroke="#444444"/>
<path fill-rule="evenodd" clip-rule="evenodd" d="M27.7826 23.7496C24.4802 16.8555 20.6256 15.0385 20.6256 11.6002V7.55045H21.4331C21.6472 7.55045 21.8526 7.47934 22.004 7.35276C22.1554 7.22618 22.2405 7.0545 22.2405 6.87548V5.52555C22.2405 5.34654 22.1554 5.17486 22.004 5.04828C21.8526 4.9217 21.6472 4.85059 21.4331 4.85059H13.3589C13.1448 4.85059 12.9394 4.9217 12.788 5.04828C12.6366 5.17486 12.5515 5.34654 12.5515 5.52555V6.87548C12.5515 7.0545 12.6366 7.22618 12.788 7.35276C12.9394 7.47934 13.1448 7.55045 13.3589 7.55045H14.1663V11.6002C14.1663 15.0385 10.3117 16.8555 7.0094 23.7496C5.95815 25.9433 3.25815 29.1494 17.396 29.1494C31.5338 29.1494 28.8338 25.9433 27.7826 23.7496ZM25.1714 26.1134C24.0378 26.3969 21.7819 26.7195 17.396 26.7195C13.0101 26.7195 10.7542 26.3969 9.62058 26.1134C9.21849 26.0135 9.06185 25.6234 9.20396 25.2656C9.55922 24.3612 10.2294 22.7979 11.4825 21.0525C14.5442 16.788 17.7206 21.7234 20.364 21.7234C23.0075 21.7234 22.2825 19.6161 23.3095 21.0525C24.2546 22.3814 25.0189 23.7946 25.588 25.2656C25.7301 25.6234 25.5735 26.0121 25.1714 26.1134Z" fill="#444444"/>
</svg>
