<svg width="163" height="183" viewBox="0 0 163 183" fill="none" xmlns="http://www.w3.org/2000/svg">
<path fill-rule="evenodd" clip-rule="evenodd" d="M156.384 142.333C132.575 90.4122 104.785 76.7278 104.785 50.8333V20.3333H110.606C112.15 20.3333 113.631 19.7978 114.722 18.8445C115.814 17.8911 116.427 16.5982 116.427 15.25V5.08333C116.427 3.73515 115.814 2.44218 114.722 1.48887C113.631 0.535564 112.15 0 110.606 0H52.394C50.8501 0 49.3695 0.535564 48.2778 1.48887C47.1861 2.44218 46.5728 3.73515 46.5728 5.08333V15.25C46.5728 16.5982 47.1861 17.8911 48.2778 18.8445C49.3695 19.7978 50.8501 20.3333 52.394 20.3333H58.2152V50.8333C58.2152 76.7278 30.4248 90.4122 6.61609 142.333C-0.963116 158.854 -20.4292 183 81.5 183C183.429 183 163.963 158.854 156.384 142.333ZM137.558 160.135C129.385 162.27 113.121 164.7 81.5 164.7C49.8792 164.7 33.6148 162.27 25.4418 160.135C22.5429 159.383 21.4136 156.445 22.4381 153.75C24.9994 146.939 29.831 135.166 38.8655 122.02C60.9395 89.9038 83.8401 127.073 102.899 127.073C121.957 127.073 116.73 111.203 124.134 122.02C130.948 132.029 136.458 142.672 140.562 153.75C141.586 156.445 140.457 159.373 137.558 160.135Z" fill="#444444"/>
</svg>
