<svg width="17" height="17" viewBox="0 0 17 17" fill="none" xmlns="http://www.w3.org/2000/svg">
<path d="M8.50053 0.00054466C3.80452 0.00054466 0 3.90417 0 8.71521C0 12.5676 2.4354 15.8329 5.81064 16.9849C6.23727 17.0671 6.39134 16.7975 6.39134 16.5644C6.39134 16.3574 6.38656 15.81 6.38337 15.0835C4.01756 15.6085 3.51922 13.9119 3.51922 13.9119C3.13191 12.9075 2.573 12.6379 2.573 12.6379C1.80371 12.0992 2.6341 12.1107 2.6341 12.1107C3.48628 12.17 3.93468 13.0066 3.93468 13.0066C4.69282 14.34 5.92381 13.9544 6.41099 13.73C6.48537 13.1684 6.70692 12.7822 6.94812 12.5671C5.061 12.3487 3.07666 11.5998 3.07666 8.26042C3.07666 7.30671 3.40606 6.53001 3.95062 5.91998C3.85658 5.70157 3.56863 4.81377 4.02553 3.61332C4.02553 3.61332 4.73692 3.38075 6.36318 4.50712C7.05592 4.31396 7.77041 4.21489 8.48831 4.21245C9.21086 4.21736 9.93287 4.31431 10.6134 4.50712C12.2301 3.38075 12.941 3.61332 12.941 3.61332C13.3974 4.81377 13.1094 5.70103 13.0265 5.91998C13.5658 6.53001 13.8952 7.30725 13.8952 8.26042C13.8952 11.6074 11.9082 12.3454 10.0189 12.5584C10.3143 12.8193 10.5911 13.3558 10.5911 14.1701C10.5911 15.3356 10.5805 16.2746 10.5805 16.5584C10.5805 16.785 10.7293 17.0573 11.167 16.9696C14.5673 15.8297 17 12.5617 17 8.71467C17 3.90363 13.1955 0 8.49947 0L8.50053 0.00054466Z" fill="#CFCFCF"/>
</svg>
