<svg width="17" height="17" viewBox="0 0 17 17" fill="none" xmlns="http://www.w3.org/2000/svg">
<path d="M14.4848 14.485H11.9659V10.5403C11.9659 9.59966 11.9491 8.38874 10.6559 8.38874C9.34396 8.38874 9.14321 9.41365 9.14321 10.4718V14.4848H6.62442V6.37285H9.04247V7.48143H9.07634C9.31833 7.06766 9.66802 6.72726 10.0882 6.49651C10.5083 6.26575 10.9832 6.15327 11.4622 6.17104C14.0152 6.17104 14.4859 7.85032 14.4859 10.035L14.4848 14.485ZM3.78223 5.26406C2.97493 5.2642 2.32037 4.60983 2.32023 3.80253C2.3201 2.99523 2.9744 2.34066 3.7817 2.34053C4.589 2.34033 5.24357 2.9947 5.2437 3.802C5.24377 4.18968 5.08984 4.56151 4.81576 4.8357C4.54169 5.10989 4.16992 5.26398 3.78223 5.26406ZM5.0417 14.4851H2.52018V6.37285H5.04163L5.0417 14.4851ZM15.7405 0.00123727H1.25448C0.569832 -0.00646585 0.00836719 0.541983 0 1.22663V15.7731C0.00810156 16.4581 0.5695 17.0071 1.25441 16.9999H15.7405C16.4269 17.0084 16.9905 16.4594 17 15.7731V1.2255C16.9902 0.539526 16.4266 -0.00885647 15.7405 0.000108368" fill="#CFCFCF"/>
</svg>
