<svg width="33" height="34" viewBox="0 0 33 34" fill="none" xmlns="http://www.w3.org/2000/svg">
<rect x="0.569336" y="0.5" width="31.9307" height="33" rx="15.9653" stroke="#444444"/>
<path d="M16.8847 20.2274L19.4295 22.9088L16.8776 25.5901L17.887 26.6432L21.4413 22.9088L17.887 19.1743L16.8847 20.2274Z" fill="#444444"/>
<path d="M21.8607 20.2274L24.4055 22.9088L21.8535 25.5901L22.863 26.6432L26.4172 22.9088L22.863 19.1743L21.8607 20.2274Z" fill="#444444"/>
<path d="M15.0436 22.1619H7.9351V10.8913L16.0601 16.7992C16.1791 16.886 16.3205 16.9324 16.4653 16.9324C16.6101 16.9324 16.7515 16.886 16.8705 16.7992L24.9955 10.8913V17.6806H26.4172V10.2117C26.4172 9.8155 26.2674 9.43555 26.0008 9.15541C25.7342 8.87528 25.3726 8.7179 24.9955 8.7179H7.9351C7.55804 8.7179 7.19642 8.87528 6.9298 9.15541C6.66318 9.43555 6.5134 9.8155 6.5134 10.2117V22.1619C6.5134 22.5581 6.66318 22.938 6.9298 23.2182C7.19642 23.4983 7.55804 23.6557 7.9351 23.6557H15.0436V22.1619ZM23.4316 10.2117L16.4653 15.2756L9.49897 10.2117H23.4316Z" fill="#444444"/>
</svg>
