<svg width="164" height="180" viewBox="0 0 164 180" fill="none" xmlns="http://www.w3.org/2000/svg">
<path d="M85.0237 114.806L103.371 135L84.9725 155.194L92.25 163.125L117.875 135L92.25 106.875L85.0237 114.806Z" fill="#444444"/>
<path d="M120.899 114.806L139.246 135L120.847 155.194L128.125 163.125L153.75 135L128.125 106.875L120.899 114.806Z" fill="#444444"/>
<path d="M71.75 129.375H20.5V44.4937L79.0788 88.9875C79.9367 89.6407 80.9559 89.9907 82 89.9907C83.0441 89.9907 84.0633 89.6407 84.9212 88.9875L143.5 44.4937V95.625H153.75V39.375C153.75 36.3913 152.67 33.5298 150.748 31.42C148.826 29.3103 146.218 28.125 143.5 28.125H20.5C17.7815 28.125 15.1744 29.3103 13.2522 31.42C11.3299 33.5298 10.25 36.3913 10.25 39.375V129.375C10.25 132.359 11.3299 135.22 13.2522 137.33C15.1744 139.44 17.7815 140.625 20.5 140.625H71.75V129.375ZM132.225 39.375L82 77.5125L31.775 39.375H132.225Z" fill="#444444"/>
</svg>
