<svg width="34" height="34" viewBox="0 0 34 34" fill="none" xmlns="http://www.w3.org/2000/svg">
<rect x="0.5" y="0.5" width="32.0694" height="33" rx="16.0347" stroke="#444444"/>
<path fill-rule="evenodd" clip-rule="evenodd" d="M23.5153 21.6222C24.7642 16.8036 21.8069 11.8267 16.9485 10.481C11.462 8.95974 3.67494 12.9101 5.40726 17.9773C5.98151 19.6532 7.08694 20.0453 9.17218 20.0762L9.30259 20.0787C10.4044 20.0923 10.7143 20.1665 10.8076 20.3223C10.9595 20.5796 10.9619 20.989 10.7908 22.1157C10.7095 22.6475 10.6832 22.833 10.6521 23.1237C10.4619 24.8936 10.7514 26.2739 11.8724 27.523C15.3753 31.4227 22.1048 27.0617 23.5153 21.6222ZM7.66358 17.1511C6.79144 14.6033 12.3724 11.7722 16.3288 12.8681C19.9382 13.8686 22.1024 17.511 21.2039 20.9803C20.2014 24.849 15.4829 27.9064 13.6262 25.8385C13.052 25.2003 12.9096 24.5176 13.0304 23.3958C13.0555 23.1559 13.0795 22.9901 13.1548 22.4979C13.4168 20.77 13.4133 19.981 12.8462 19.0274C12.1356 17.8314 11.2909 17.6298 9.3325 17.6038L9.20568 17.6013C8.0524 17.5853 7.77843 17.4875 7.66239 17.1511H7.66358Z" fill="#444444"/>
<path d="M11.2885 16.7292C10.8919 16.7292 10.5115 16.5664 10.2311 16.2764C9.95065 15.9865 9.79309 15.5932 9.79309 15.1832C9.79309 14.7732 9.95065 14.38 10.2311 14.09C10.5115 13.8001 10.8919 13.6372 11.2885 13.6372C11.6851 13.6372 12.0655 13.8001 12.346 14.09C12.6264 14.38 12.784 14.7732 12.784 15.1832C12.784 15.5932 12.6264 15.9865 12.346 16.2764C12.0655 16.5664 11.6851 16.7292 11.2885 16.7292Z" fill="#444444"/>
<path d="M15.7749 16.7292C15.3782 16.7292 14.9979 16.5664 14.7174 16.2764C14.437 15.9865 14.2794 15.5932 14.2794 15.1832C14.2794 14.7732 14.437 14.38 14.7174 14.09C14.9979 13.8001 15.3782 13.6372 15.7749 13.6372C16.1715 13.6372 16.5518 13.8001 16.8323 14.09C17.1127 14.38 17.2703 14.7732 17.2703 15.1832C17.2703 15.5932 17.1127 15.9865 16.8323 16.2764C16.5518 16.5664 16.1715 16.7292 15.7749 16.7292Z" fill="#444444"/>
<path d="M18.7658 20.4398C18.3692 20.4398 17.9888 20.2769 17.7083 19.987C17.4279 19.6971 17.2703 19.3038 17.2703 18.8938C17.2703 18.4838 17.4279 18.0905 17.7083 17.8006C17.9888 17.5107 18.3692 17.3478 18.7658 17.3478C19.1624 17.3478 19.5428 17.5107 19.8232 17.8006C20.1037 18.0905 20.2612 18.4838 20.2612 18.8938C20.2612 19.3038 20.1037 19.6971 19.8232 19.987C19.5428 20.2769 19.1624 20.4398 18.7658 20.4398Z" fill="#444444"/>
<path d="M16.9712 24.7687C16.5746 24.7687 16.1942 24.6058 15.9138 24.3158C15.6333 24.0259 15.4758 23.6327 15.4758 23.2226C15.4758 22.8126 15.6333 22.4194 15.9138 22.1295C16.1942 21.8395 16.5746 21.6766 16.9712 21.6766C17.3678 21.6766 17.7482 21.8395 18.0286 22.1295C18.3091 22.4194 18.4667 22.8126 18.4667 23.2226C18.4667 23.6327 18.3091 24.0259 18.0286 24.3158C17.7482 24.6058 17.3678 24.7687 16.9712 24.7687Z" fill="#444444"/>
<path d="M21.302 8.81995C21.4439 8.74138 21.5996 8.6932 21.7599 8.67831C21.9202 8.66341 22.0817 8.6821 22.2348 8.73325C22.388 8.78441 22.5296 8.86698 22.6511 8.97602C22.7726 9.08506 22.8717 9.21833 22.9422 9.36785L27.8389 19.7571C27.9207 19.9438 27.9305 20.1557 27.8666 20.3498C27.8026 20.5438 27.6696 20.7053 27.4945 20.8016C27.3194 20.8978 27.1155 20.9215 26.9241 20.8679C26.7328 20.8142 26.5683 20.6872 26.4643 20.5128L20.8319 10.5317C20.7509 10.3881 20.6988 10.2291 20.6787 10.0642C20.6586 9.89931 20.671 9.73191 20.715 9.57206C20.759 9.41222 20.8338 9.2632 20.9349 9.13396C21.036 9.00472 21.1612 8.89791 21.3032 8.81995H21.302Z" fill="#444444"/>
<path fill-rule="evenodd" clip-rule="evenodd" d="M19.1091 8.67023C19.6917 9.80191 20.6715 10.1185 21.619 9.59784C22.5654 9.07838 22.8609 8.06048 22.2782 6.9288C21.6131 5.63263 20.187 4.45766 19.2419 4.97588C18.2968 5.49534 18.4427 7.37405 19.1103 8.67023H19.1091ZM20.1655 8.08893C19.9536 7.64917 19.8238 7.17211 19.7826 6.68268C19.7648 6.47807 19.7721 6.27196 19.8042 6.06922L19.8257 6.08035C19.8855 6.11003 20.071 6.19908 20.3078 6.3945C20.6691 6.69257 21.028 7.13164 21.2219 7.50887C21.4958 8.0407 21.4181 8.30785 21.0568 8.50697C20.6978 8.70486 20.4394 8.62076 20.1655 8.09017V8.08893Z" fill="#444444"/>
</svg>
