<svg width="164" height="182" viewBox="0 0 164 182" fill="none" xmlns="http://www.w3.org/2000/svg">
<path fill-rule="evenodd" clip-rule="evenodd" d="M132.328 126.31C141.333 90.0203 120.011 52.5378 84.9834 42.4034C45.4277 30.9463 -10.7145 60.6975 1.77495 98.8599C5.9151 111.481 13.8849 114.434 28.9188 114.667L29.859 114.686C37.8029 114.788 40.0369 115.347 40.7096 116.521C41.805 118.458 41.8223 121.541 40.5889 130.027C40.0024 134.032 39.8126 135.43 39.5883 137.618C38.2169 150.948 40.3042 161.343 48.3862 170.751C73.6411 200.12 122.159 167.277 132.328 126.31ZM18.0423 92.6377C11.7544 73.4494 51.9916 52.128 80.5155 60.3808C106.538 67.9164 122.141 95.3483 115.664 121.476C108.436 150.613 74.4174 173.639 61.0309 158.064C56.8907 153.258 55.8643 148.116 56.7355 139.668C56.9166 137.861 57.0891 136.612 57.6325 132.905C59.5215 119.893 59.4956 113.95 55.4072 106.768C50.2837 97.7608 44.1943 96.2425 30.0746 96.0469L29.1603 96.0283C20.8455 95.9072 18.8703 95.1713 18.0337 92.6377H18.0423Z" fill="#444444"/>
<path d="M44.177 89.4614C41.3176 89.4614 38.5752 88.2347 36.5533 86.0511C34.5313 83.8675 33.3954 80.906 33.3954 77.818C33.3954 74.73 34.5313 71.7684 36.5533 69.5849C38.5752 67.4013 41.3176 66.1746 44.177 66.1746C47.0365 66.1746 49.7789 67.4013 51.8008 69.5849C53.8228 71.7684 54.9587 74.73 54.9587 77.818C54.9587 80.906 53.8228 83.8675 51.8008 86.0511C49.7789 88.2347 47.0365 89.4614 44.177 89.4614Z" fill="#444444"/>
<path d="M76.5219 89.4614C73.6625 89.4614 70.9201 88.2347 68.8982 86.0511C66.8762 83.8675 65.7403 80.906 65.7403 77.818C65.7403 74.73 66.8762 71.7684 68.8982 69.5849C70.9201 67.4013 73.6625 66.1746 76.5219 66.1746C79.3814 66.1746 82.1238 67.4013 84.1457 69.5849C86.1677 71.7684 87.3036 74.73 87.3036 77.818C87.3036 80.906 86.1677 83.8675 84.1457 86.0511C82.1238 88.2347 79.3814 89.4614 76.5219 89.4614Z" fill="#444444"/>
<path d="M98.0853 117.406C95.2258 117.406 92.4834 116.179 90.4615 113.995C88.4395 111.812 87.3036 108.85 87.3036 105.762C87.3036 102.674 88.4395 99.7126 90.4615 97.529C92.4834 95.3455 95.2258 94.1187 98.0853 94.1187C100.945 94.1187 103.687 95.3455 105.709 97.529C107.731 99.7126 108.867 102.674 108.867 105.762C108.867 108.85 107.731 111.812 105.709 113.995C103.687 116.179 100.945 117.406 98.0853 117.406Z" fill="#444444"/>
<path d="M85.1473 150.007C82.2878 150.007 79.5455 148.78 77.5235 146.597C75.5016 144.413 74.3656 141.452 74.3656 138.364C74.3656 135.276 75.5016 132.314 77.5235 130.131C79.5455 127.947 82.2878 126.72 85.1473 126.72C88.0067 126.72 90.7491 127.947 92.7711 130.131C94.793 132.314 95.9289 135.276 95.9289 138.364C95.9289 141.452 94.793 144.413 92.7711 146.597C90.7491 148.78 88.0067 150.007 85.1473 150.007Z" fill="#444444"/>
<path d="M116.371 29.8937C117.394 29.302 118.516 28.9392 119.672 28.827C120.828 28.7148 121.992 28.8556 123.096 29.2408C124.2 29.6261 125.221 30.2479 126.097 31.0691C126.974 31.8903 127.687 32.894 128.196 34.0202L163.5 112.264C164.089 113.67 164.16 115.266 163.699 116.727C163.238 118.189 162.279 119.405 161.017 120.13C159.754 120.855 158.284 121.034 156.904 120.63C155.525 120.226 154.339 119.269 153.589 117.955L112.981 42.7853C112.397 41.704 112.022 40.5064 111.877 39.2645C111.732 38.0227 111.821 36.762 112.139 35.5581C112.456 34.3543 112.995 33.232 113.724 32.2587C114.453 31.2853 115.356 30.4809 116.38 29.8937H116.371Z" fill="#444444"/>
<path fill-rule="evenodd" clip-rule="evenodd" d="M100.561 28.7667C104.761 37.2896 111.825 39.6742 118.657 35.7527C125.479 31.8405 127.61 24.1745 123.409 15.6516C118.614 5.88973 108.332 -2.95925 101.518 0.943614C94.7042 4.8558 95.7565 19.0049 100.569 28.7667H100.561ZM108.177 24.3888C106.65 21.0768 105.713 17.484 105.417 13.7979C105.288 12.257 105.341 10.7047 105.572 9.17782L105.727 9.26166C106.159 9.48521 107.496 10.1559 109.203 11.6276C111.808 13.8724 114.396 17.1792 115.793 20.0202C117.768 24.0255 117.208 26.0375 114.603 27.5371C112.015 29.0275 110.152 28.3941 108.177 24.3981V24.3888Z" fill="#444444"/>
</svg>
