<svg width="163" height="182" viewBox="0 0 163 182" fill="none" xmlns="http://www.w3.org/2000/svg">
<path fill-rule="evenodd" clip-rule="evenodd" d="M24.0357 9.1C20.9644 9.1 18.0189 10.0587 15.8472 11.7653C13.6754 13.4719 12.4554 15.7865 12.4554 18.2V145.6C12.4554 148.013 13.6754 150.328 15.8472 152.035C18.0189 153.741 20.9644 154.7 24.0357 154.7H87.7277V163.8H24.0357C17.8931 163.8 12.0021 161.882 7.65862 158.469C3.31514 155.056 0.875 150.427 0.875 145.6V18.2C0.875 13.3731 3.31514 8.74382 7.65862 5.33066C12.0021 1.91749 17.8931 0 24.0357 0H139.839C145.982 0 151.873 1.91749 156.216 5.33066C160.56 8.74382 163 13.3731 163 18.2V145.6C163 150.427 160.56 155.056 156.216 158.469C151.873 161.882 145.982 163.8 139.839 163.8H122.469V154.7H139.839C142.911 154.7 145.856 153.741 148.028 152.035C150.2 150.328 151.42 148.013 151.42 145.6V18.2C151.42 15.7865 150.2 13.4719 148.028 11.7653C145.856 10.0587 142.911 9.1 139.839 9.1H24.0357Z" fill="#444444"/>
<path fill-rule="evenodd" clip-rule="evenodd" d="M47.1964 31.85C47.1964 30.6433 47.8065 29.4859 48.8923 28.6327C49.9782 27.7794 51.451 27.3 52.9866 27.3H110.888C112.424 27.3 113.897 27.7794 114.983 28.6327C116.069 29.4859 116.679 30.6433 116.679 31.85C116.679 33.0567 116.069 34.214 114.983 35.0673C113.897 35.9206 112.424 36.4 110.888 36.4H52.9866C51.451 36.4 49.9782 35.9206 48.8923 35.0673C47.8065 34.214 47.1964 33.0567 47.1964 31.85Z" fill="#444444"/>
<path fill-rule="evenodd" clip-rule="evenodd" d="M24.0357 59.1499C24.0357 57.9432 24.6457 56.7859 25.7316 55.9326C26.8175 55.0793 28.2902 54.5999 29.8259 54.5999H134.049C135.585 54.5999 137.058 55.0793 138.143 55.9326C139.229 56.7859 139.839 57.9432 139.839 59.1499C139.839 60.3567 139.229 61.514 138.143 62.3673C137.058 63.2206 135.585 63.6999 134.049 63.6999H29.8259C28.2902 63.6999 26.8175 63.2206 25.7316 62.3673C24.6457 61.514 24.0357 60.3567 24.0357 59.1499Z" fill="#444444"/>
<path fill-rule="evenodd" clip-rule="evenodd" d="M24.0357 77.35C24.0357 76.1433 24.6457 74.9859 25.7316 74.1326C26.8175 73.2794 28.2902 72.8 29.8259 72.8H134.049C135.585 72.8 137.058 73.2794 138.143 74.1326C139.229 74.9859 139.839 76.1433 139.839 77.35C139.839 78.5567 139.229 79.714 138.143 80.5673C137.058 81.4206 135.585 81.9 134.049 81.9H29.8259C28.2902 81.9 26.8175 81.4206 25.7316 80.5673C24.6457 79.714 24.0357 78.5567 24.0357 77.35Z" fill="#444444"/>
<path fill-rule="evenodd" clip-rule="evenodd" d="M24.0357 95.55C24.0357 94.3433 24.6457 93.186 25.7316 92.3327C26.8175 91.4794 28.2902 91 29.8259 91H134.049C135.585 91 137.058 91.4794 138.143 92.3327C139.229 93.186 139.839 94.3433 139.839 95.55C139.839 96.7567 139.229 97.914 138.143 98.7673C137.058 99.6206 135.585 100.1 134.049 100.1H29.8259C28.2902 100.1 26.8175 99.6206 25.7316 98.7673C24.6457 97.914 24.0357 96.7567 24.0357 95.55Z" fill="#444444"/>
<path fill-rule="evenodd" clip-rule="evenodd" d="M105.098 141.05C108.17 141.05 111.115 140.091 113.287 138.385C115.458 136.678 116.679 134.363 116.679 131.95C116.679 129.537 115.458 127.222 113.287 125.515C111.115 123.809 108.17 122.85 105.098 122.85C102.027 122.85 99.0814 123.809 96.9097 125.515C94.7379 127.222 93.5179 129.537 93.5179 131.95C93.5179 134.363 94.7379 136.678 96.9097 138.385C99.0814 140.091 102.027 141.05 105.098 141.05ZM105.098 150.15C111.241 150.15 117.132 148.233 121.475 144.819C125.819 141.406 128.259 136.777 128.259 131.95C128.259 127.123 125.819 122.494 121.475 119.081C117.132 115.667 111.241 113.75 105.098 113.75C98.9556 113.75 93.0646 115.667 88.7211 119.081C84.3776 122.494 81.9375 127.123 81.9375 131.95C81.9375 136.777 84.3776 141.406 88.7211 144.819C93.0646 148.233 98.9556 150.15 105.098 150.15Z" fill="#444444"/>
<path fill-rule="evenodd" clip-rule="evenodd" d="M99.308 141.05H87.7277V182L105.098 175.175L122.469 182V141.05H110.888V167.276L105.098 165.001L99.308 167.276V141.05Z" fill="#444444"/>
</svg>
