<svg width="33" height="34" viewBox="0 0 33 34" fill="none" xmlns="http://www.w3.org/2000/svg">
<rect x="0.5" y="0.5" width="31.9307" height="33" rx="15.9653" stroke="#444444"/>
<path fill-rule="evenodd" clip-rule="evenodd" d="M8.49489 6.1917C8.06889 6.1917 7.66034 6.319 7.35912 6.5456C7.05789 6.7722 6.88866 7.07954 6.88866 7.4V24.3162C6.88866 24.6367 7.05789 24.944 7.35912 25.1706C7.66034 25.3972 8.06889 25.5245 8.49489 25.5245H17.3291V26.7328H8.49489C7.64289 26.7328 6.8258 26.4782 6.22334 26.025C5.62089 25.5718 5.28244 24.9571 5.28244 24.3162V7.4C5.28244 6.75908 5.62089 6.1444 6.22334 5.6912C6.8258 5.238 7.64289 4.9834 8.49489 4.9834H24.5571C25.4091 4.9834 26.2262 5.238 26.8287 5.6912C27.4311 6.1444 27.7696 6.75908 27.7696 7.4V24.3162C27.7696 24.9571 27.4311 25.5718 26.8287 26.025C26.2262 26.4782 25.4091 26.7328 24.5571 26.7328H22.1478V25.5245H24.5571C24.9831 25.5245 25.3917 25.3972 25.6929 25.1706C25.9941 24.944 26.1634 24.6367 26.1634 24.3162V7.4C26.1634 7.07954 25.9941 6.7722 25.6929 6.5456C25.3917 6.319 24.9831 6.1917 24.5571 6.1917H8.49489Z" fill="#444444"/>
<path fill-rule="evenodd" clip-rule="evenodd" d="M11.7073 9.21255C11.7073 9.05232 11.7919 8.89865 11.9426 8.78535C12.0932 8.67205 12.2974 8.6084 12.5104 8.6084H20.5416C20.7546 8.6084 20.9588 8.67205 21.1095 8.78535C21.2601 8.89865 21.3447 9.05232 21.3447 9.21255C21.3447 9.37278 21.2601 9.52645 21.1095 9.63975C20.9588 9.75305 20.7546 9.8167 20.5416 9.8167H12.5104C12.2974 9.8167 12.0932 9.75305 11.9426 9.63975C11.7919 9.52645 11.7073 9.37278 11.7073 9.21255Z" fill="#444444"/>
<path fill-rule="evenodd" clip-rule="evenodd" d="M8.49487 12.8374C8.49487 12.6772 8.57949 12.5235 8.7301 12.4102C8.88071 12.2969 9.08499 12.2333 9.29799 12.2333H23.754C23.967 12.2333 24.1713 12.2969 24.3219 12.4102C24.4725 12.5235 24.5571 12.6772 24.5571 12.8374C24.5571 12.9977 24.4725 13.1513 24.3219 13.2646C24.1713 13.3779 23.967 13.4416 23.754 13.4416H9.29799C9.08499 13.4416 8.88071 13.3779 8.7301 13.2646C8.57949 13.1513 8.49487 12.9977 8.49487 12.8374Z" fill="#444444"/>
<path fill-rule="evenodd" clip-rule="evenodd" d="M8.49487 15.2541C8.49487 15.0938 8.57949 14.9402 8.7301 14.8269C8.88071 14.7136 9.08499 14.6499 9.29799 14.6499H23.754C23.967 14.6499 24.1713 14.7136 24.3219 14.8269C24.4725 14.9402 24.5571 15.0938 24.5571 15.2541C24.5571 15.4143 24.4725 15.568 24.3219 15.6813C24.1713 15.7946 23.967 15.8582 23.754 15.8582H9.29799C9.08499 15.8582 8.88071 15.7946 8.7301 15.6813C8.57949 15.568 8.49487 15.4143 8.49487 15.2541Z" fill="#444444"/>
<path fill-rule="evenodd" clip-rule="evenodd" d="M8.49487 17.6707C8.49487 17.5104 8.57949 17.3568 8.7301 17.2435C8.88071 17.1302 9.08499 17.0665 9.29799 17.0665H23.754C23.967 17.0665 24.1713 17.1302 24.3219 17.2435C24.4725 17.3568 24.5571 17.5104 24.5571 17.6707C24.5571 17.8309 24.4725 17.9846 24.3219 18.0979C24.1713 18.2112 23.967 18.2748 23.754 18.2748H9.29799C9.08499 18.2748 8.88071 18.2112 8.7301 18.0979C8.57949 17.9846 8.49487 17.8309 8.49487 17.6707Z" fill="#444444"/>
<path fill-rule="evenodd" clip-rule="evenodd" d="M19.7384 23.7122C20.1644 23.7122 20.573 23.5849 20.8742 23.3583C21.1754 23.1317 21.3447 22.8243 21.3447 22.5039C21.3447 22.1834 21.1754 21.8761 20.8742 21.6495C20.573 21.4229 20.1644 21.2956 19.7384 21.2956C19.3125 21.2956 18.9039 21.4229 18.6027 21.6495C18.3015 21.8761 18.1322 22.1834 18.1322 22.5039C18.1322 22.8243 18.3015 23.1317 18.6027 23.3583C18.9039 23.5849 19.3125 23.7122 19.7384 23.7122ZM19.7384 24.9205C20.5904 24.9205 21.4075 24.6659 22.01 24.2127C22.6124 23.7595 22.9509 23.1448 22.9509 22.5039C22.9509 21.863 22.6124 21.2483 22.01 20.7951C21.4075 20.3419 20.5904 20.0873 19.7384 20.0873C18.8865 20.0873 18.0694 20.3419 17.4669 20.7951C16.8645 21.2483 16.526 21.863 16.526 22.5039C16.526 23.1448 16.8645 23.7595 17.4669 24.2127C18.0694 24.6659 18.8865 24.9205 19.7384 24.9205Z" fill="#444444"/>
<path fill-rule="evenodd" clip-rule="evenodd" d="M18.9353 23.7122H17.3291V29.1495L19.7384 28.2433L22.1478 29.1495V23.7122H20.5415V27.1945L19.7384 26.8924L18.9353 27.1945V23.7122Z" fill="#444444"/>
</svg>
