<svg width="17" height="17" viewBox="0 0 17 17" fill="none" xmlns="http://www.w3.org/2000/svg">
<path d="M17 2.01242C16.3745 2.35373 15.7023 2.58441 14.9968 2.68818C15.717 2.15705 16.2699 1.31598 16.5303 0.313858C15.8457 0.813765 15.0967 1.16598 14.3156 1.35529C13.6794 0.521245 12.773 0 11.7698 0C9.8436 0 8.28192 1.92156 8.28192 4.29155C8.28192 4.62796 8.3128 4.95547 8.37223 5.26965C5.4736 5.09062 2.90368 3.38209 1.18343 0.785586C0.883269 1.41943 0.711277 2.15673 0.711277 2.94313C0.711277 4.4321 1.32706 5.74563 2.26286 6.51528C1.709 6.49394 1.16732 6.30986 0.683055 5.97843C0.682855 5.99641 0.682855 6.01438 0.682855 6.03244C0.682855 8.11178 1.88507 9.84638 3.48055 10.2406C2.96696 10.4125 2.42823 10.4377 1.90553 10.3142C2.34932 12.0192 3.6374 13.2599 5.16355 13.2947C3.9699 14.4457 2.466 15.1318 0.832004 15.1318C0.550441 15.1318 0.272863 15.1115 0 15.0718C1.54348 16.2895 3.37676 17 5.34637 17C11.7617 17 15.2697 10.4605 15.2697 4.78926C15.2697 4.60312 15.2664 4.41804 15.2596 4.23403C15.9424 3.62664 16.5318 2.87434 17 2.01242Z" fill="#CFCFCF"/>
</svg>
